PathFileType	4	(X/Y/Z)	path1_23_0-642.trc
DataRate	CameraRate	NumFrames	NumMarkers	Units	OrigDataRate	OrigDataStartFrame	OrigNumFrames
30	30	9	22	m	30	321	642
Frame#	Time	Hip			RHip			RKnee			RAnkle			RBigToe			RSmallToe			RHeel			LHip			LKnee			LAnkle			LBigToe			LSmallToe			LHeel			Neck			Head			Nose			RShoulder			RElbow			RWrist			LShoulder			LElbow			LWrist		
		X1	Y1	Z1	X2	Y2	Z2	X3	Y3	Z3	X4	Y4	Z4	X5	Y5	Z5	X6	Y6	Z6	X7	Y7	Z7	X8	Y8	Z8	X9	Y9	Z9	X10	Y10	Z10	X11	Y11	Z11	X12	Y12	Z12	X13	Y13	Z13	X14	Y14	Z14	X15	Y15	Z15	X16	Y16	Z16	X17	Y17	Z17	X18	Y18	Z18	X19	Y19	Z19	X20	Y20	Z20	X21	Y21	Z21	X22	Y22	Z22
322	10.733333333333333	2.5068591586037705	0.8324574705716783	0.5887962653148843	2.50987114754317	0.795655442140877	0.5129171537771071	2.4902462867219675	0.4656456056329764	0.4975761702281759	2.5605293149360557	0.09631004105957125	0.5349104724605979	2.3639655027485356	0.026994086907666408	0.5018319046402029	2.4018597135508326	0.0226487053979624	0.4464772015246801	2.6060761382618427	0.03434329351377924	0.5340656000722624	2.502261543295417	0.7950120964133005	0.6732061601552457	2.5131048541563326	0.4297851206573364	0.6762794958208148	2.551798651489707	0.09817338074761522	0.6398089038489575	2.3817356790750575	0.018475696973732244	0.6650785834572618	2.4198095219524656	0.01608593276595901	0.711195571416478	2.5936528693357492	0.03556592238534775	0.6444951155425437	2.457038272833962	1.470047588252588	0.6052337038470775	2.4157274368816632	1.7125467095501052	0.5492210967230355	2.3169743878845748	1.6100852165261188	0.5766205489267416	2.499164289857017	1.3494233604164763	0.4008150570997041	2.524471339260899	1.07764886225623	0.39196929710603357	2.4952971295580495	0.8417529963462246	0.3760902552097088	2.4671026826824902	1.348886059063017	0.7641790773114906	2.510756940369261	1.0713926907310516	0.792763933409505	2.5095436829762194	0.8356006880356763	0.7935508290879083
323	10.766666666666667	2.506008770754151	0.8324604011823639	0.5884229160829318	2.509228427313879	0.7950207673102869	0.5122367304648286	2.490308394397639	0.4654498987355644	0.4973596449142911	2.558635883261448	0.09781305207463889	0.5316927202591768	2.364277560829384	0.02644733639563774	0.5014580040994812	2.4018870609555587	0.022332365713099392	0.4462240246970812	2.606516806267602	0.03370784601928865	0.5344669443520885	2.501758699886609	0.7939727431020683	0.6721267072073853	2.5128562258796023	0.4298868534939142	0.6717746702777301	2.553135368763229	0.09628155165241092	0.6393119732846747	2.381910965658886	0.01844853807230962	0.6651749843548989	2.4200583908958744	0.017241594093923413	0.7121359873521755	2.593956975209928	0.035203033193702264	0.6445173676618333	2.4567925271621642	1.4703830605150183	0.6055125753956507	2.415406274235296	1.7114355295460015	0.5494515304870837	2.3165898675411936	1.6100070121134742	0.5772940173766689	2.5017221428087733	1.3534732279796882	0.40706258011415347	2.523281322533227	1.077800218725606	0.3908103085996912	2.495359472954845	0.8421778667304454	0.37628811793439726	2.462746761442438	1.347823224464682	0.7684070560998942	2.510669980405053	1.0712692479028736	0.7930305360055994	2.5093455181037485	0.835950778375476	0.7937204930303858
324	10.8	2.504820955169719	0.8325019181260814	0.5880259854495299	2.5084759471250617	0.7942408227325535	0.5112781209334064	2.4904684381922606	0.4652544509059036	0.4970391597455341	2.5563811867822475	0.09957136320963723	0.5280961954490607	2.3643679699012963	0.02556492453506754	0.5011395392701007	2.401801130616584	0.02204619071476116	0.44579498762500525	2.606835692016496	0.033097606970086985	0.534785192671525	2.5007645795791755	0.7927813865822971	0.6705115560414939	2.5123792391499804	0.43008389822538523	0.6649753950336332	2.553872614814959	0.09477567469046569	0.6388730461022861	2.3822738107806014	0.018474394282895112	0.6652343870749379	2.420285703546344	0.019031393394606272	0.7137526209024481	2.5935104773554944	0.035109518509025585	0.6441799452956419	2.456430710865004	1.4707360787870924	0.6055902398103993	2.417203111341229	1.7114736411805216	0.5486190981817691	2.316295602935787	1.6100289157943553	0.5784303642640628	2.5051223784840033	1.3587729982527255	0.4152362233040447	2.521634343002485	1.0780183450048908	0.3891970823941058	2.4953860447144143	0.8428503142505259	0.3764687800435768	2.4592544641398657	1.347077503641843	0.770876289550074	2.5105474288427425	1.0712912790218168	0.7932365897216012	2.5092975242268514	0.836388358557183	0.7939338120872229
325	10.833333333333334	2.5035382854766226	0.8325317059736101	0.5876657995726536	2.507729310907535	0.7935229022429151	0.5102117667271303	2.4907532480758183	0.4650871676980793	0.49668339831693903	2.55458591342848	0.10101576442907421	0.5253153339077277	2.3641111959197834	0.024315952448873274	0.5010910723161327	2.401563797101149	0.02189157822704576	0.4452263435122231	2.60716837628011	0.032599697747568	0.5350849379535124	2.499369384566024	0.7917478894797167	0.6687957073750611	2.511764032385469	0.4303295884497457	0.6572913337177796	2.5536186029212784	0.09424528986111365	0.6387484272023285	2.382839367098633	0.01850583740043708	0.6652308571446736	2.420487250746209	0.02093400946244855	0.7156113579404931	2.5918020700913003	0.03546554204490423	0.6432050085514696	2.4559625406267216	1.4710125431701768	0.6054952505762491	2.420305087652298	1.712501292603459	0.5468375551143078	2.316038266833648	1.6101604811624677	0.5797029257639081	2.5084496431515695	1.3638103791746805	0.4232050240753788	2.520567450879393	1.0781569041445234	0.3887387022176789	2.495319581294861	0.8435687088917673	0.37665940233608985	2.4566173265959796	1.3466226779160837	0.7718106030649456	2.5103678556059013	1.0714708009549883	0.7933435508681685	2.5094230200061785	0.8368091502986085	0.7940726864771722
326	10.866666666666667	2.502411155206304	0.8325081344978253	0.5874071532393288	2.507054534226306	0.7930425389725835	0.5092436647101246	2.49115139081497	0.46498133094657124	0.4963671246893133	2.5539780720131953	0.10158120842413793	0.524420881208701	2.36341391043025	0.022639816291933505	0.5015056358955772	2.4012210895281267	0.021909453634400243	0.4446142410562369	2.6075741442391687	0.03224767964357515	0.5353751530189694	2.497831508096999	0.7910881702235567	0.6674339883132854	2.5112116345845443	0.4305743789287904	0.6507767934241261	2.5525206882255893	0.09474358557825122	0.6390018133253266	2.3835731153626605	0.018476105726074464	0.6651507164316594	2.4207136461682093	0.022404917614679623	0.7172202676283632	2.5891691306388935	0.036164248622505696	0.6418484323432552	2.4554433666157616	1.4711728375143072	0.6053011645003153	2.423257471256687	1.7138786604818137	0.5448674288719155	2.3157492623556206	1.6103355288063794	0.5807444421578493	2.5109624296387882	1.3674895136605412	0.4293270590817184	2.520808928066238	1.0780964371175044	0.39044304199859653	2.4951071404291976	0.8441102467659343	0.3769169264795065	2.4550188535403055	1.3463984387221268	0.7715818996626025	2.5101626828516674	1.071753829241606	0.793381336937361	2.509696863437311	0.837100067518199	0.7940916644966451
327	10.9	2.501656771020358	0.8324056921552844	0.5873122707190804	2.5065048603577873	0.7929072076791237	0.50855089423889	2.491580149747233	0.46492959640826687	0.4961313911697169	2.5547647023761857	0.10103120124076323	0.5257582501356942	2.3622574592974126	0.02045106427892442	0.5024991394754805	2.4008754392149467	0.02206827193531058	0.44407587111702146	2.6079814357681945	0.03204622974853489	0.535624253210876	2.4965022537637545	0.790894360417493	0.6667282166658139	2.5108988145475575	0.4307824637372603	0.6468725324838648	2.551152786579212	0.09582748884743678	0.6395037388695319	2.384362537136634	0.018347180576895102	0.6650168995287542	2.421000254389049	0.023234767322846343	0.7183465237278883	2.586481120274081	0.03692945361234129	0.6406005819467624	2.4549690400678585	1.4712319143745387	0.6050974931385313	2.425110253534858	1.7151865938266309	0.5432521043288705	2.3154076607410534	1.6104449170449557	0.5813088957772352	2.5124093929173976	1.3695775600521094	0.43313684812028647	2.522036391879871	1.0778676550643267	0.3935555840041904	2.4947457679174305	0.8443499142862623	0.37728038033810307	2.4547316554290703	1.3463807038425948	0.7704856802844536	2.509986676768203	1.0720171335653752	0.7934085611297915	2.510018283107107	0.8371647972359	0.7940435480879202
328	10.933333333333334	2.501418439866328	0.8322205448368916	0.5874102784786036	2.5061339417132977	0.7931837292766851	0.5082241381937695	2.4919263929077218	0.46489504714549446	0.49599602412767707	2.556608199374892	0.09957417435393573	0.5288105356730465	2.3607410653861978	0.017844757556142034	0.5039957865650944	2.4005647555176344	0.02230600983144044	0.4436833221850477	2.6083079530293958	0.031988849035737205	0.5358462395915908	2.495676133350608	0.7912057334928301	0.6667509773926392	2.5108442034588148	0.43094884116723986	0.6457920249782212	2.5499407833441334	0.09714413599972273	0.6401632006431166	2.3850157021450324	0.018154585151786227	0.664911735672432	2.421276676722479	0.023492485607998447	0.7189955683565709	2.5844309124353853	0.03753664258746411	0.6397671724387277	2.4546240671071295	1.471198603555836	0.6049415365085841	2.4254904325305846	1.716300007287398	0.5422861897061051	2.3150543485174393	1.6103543291214355	0.5813242541042872	2.512933781086195	1.370431925005414	0.4349963344716336	2.523447534998925	1.0775974092423888	0.3965566144502592	2.4942908217061968	0.8442807286440925	0.37771475318492853	2.455730682823955	1.3465875539976877	0.7687943436269771	2.5098596546859357	1.0721328567055919	0.7934659546407389	2.5102492800347727	0.8369584093305305	0.7940121948234783
329	10.966666666666669	2.501722404180922	0.8319899000132818	0.5876834938176173	2.5059678774593457	0.7938921523183439	0.5082540405471155	2.4921096089100656	0.46486705509109055	0.49598142148708924	2.558811040068803	0.09778806380116828	0.532401607327003	2.3591166675969073	0.015333261115674212	0.5056212658203457	2.4002654742478873	0.022562474269152193	0.4434285813811269	2.60853550965649	0.03203666710808018	0.5360867986030351	2.495477286039168	0.7920045521882824	0.6673889043516746	2.5109369461491635	0.431105642262136	0.6467754062532141	2.5489414895354314	0.09869354342120304	0.6410441428618235	2.385352042295923	0.017983407824547014	0.6649276381198646	2.421424763860066	0.023341090693491776	0.7192613953958196	2.5833226054400886	0.03787390731730413	0.6394417393214344	2.4544294214157016	1.471060348557708	0.6048308584440788	2.4242555440493843	1.7171355030769269	0.5421586005663325	2.3147364936709387	1.609976580294913	0.5808578425330347	2.512857123414981	1.370599348083917	0.4355580251085863	2.52469705735425	1.0773379370471354	0.39881097011278255	2.493830188679241	0.8439593495498103	0.37812548304325705	2.457436797413947	1.3469996472491688	0.7670161064280835	2.5097443649462137	1.0720431779941482	0.7935698718219919	2.510296797771053	0.8365347992231627	0.7940512337302669
330	11.0	2.5024331658526666	0.8317936735982459	0.5880736206864866	2.5059882487545697	0.794964270289543	0.5085723309819488	2.492099287140169	0.4648838142099903	0.4961129446755144	2.5606602060290986	0.09630203271302376	0.5353469668963939	2.357690981296522	0.01365886998384546	0.5068365454392617	2.399965382320738	0.022786069708442026	0.4432548401546288	2.6086452447268496	0.032105621574372814	0.5363278524845789	2.4958092503724134	0.7931665489446752	0.6684380947016454	2.51105303464101	0.4312985770469704	0.6487104869687845	2.548248607735635	0.10037044039165677	0.6422430518984141	2.385344370047574	0.017883860276329478	0.6650762225730523	2.421406114086762	0.022890171506646174	0.7192069587239601	2.5832761781501588	0.03785492518331088	0.6396343386758586	2.4543430041498158	1.470820232059315	0.6047256143704712	2.421390895669309	1.7174794301564562	0.5430686819481715	2.314466410385242	1.6093683303183832	0.5800932231496648	2.5124949020557086	1.3705492426266972	0.4354420578374005	2.5258654773518203	1.077046124755015	0.4005739392748216	2.4934507845209364	0.843485039782635	0.3784398286448237	2.4589119524827283	1.3475222265339875	0.7658434484263497	2.509582841945555	1.0717771924465265	0.7937208773303144	2.510162707341124	0.836046531792343	0.7941720375729251
